<svg viewBox="0 0 16 16" fill="currentColor">
  <path style="stroke: none; fill-rule: evenodd; fill: rgb(0, 0, 0); fill-opacity: 1;" d="M 7.251 7.725 L 10.306 6.706 C 9.746 6.236 8.928 6.073 7.976 6.073 C 3.624 6.073 3.65 12.759 7.901 12.759 C 9.765 12.759 11.011 11.675 11.427 10.39 L 13.184 10.928 C 12.699 13.133 11.005 15 7.824 15 C 0.726 15 0.683 3.906 7.95 3.906 C 9.06 3.906 9.941 4.306 10.683 4.819 L 9.009 1.976 L 10.993 1 L 13.5 6.978 L 8.216 9.713 L 7.251 7.725 Z M 7.251 7.725" transform="matrix(0.9999999999999999, 0, 0, 0.9999999999999999, 0, 0)"/>
</svg>