<svg viewBox="0 0 16 16" fill="currentColor">
  <path style="stroke: none; fill-rule: evenodd; fill: rgb(0, 0, 0); fill-opacity: 1;" d="M 8.102 15 C 4.781 15 3.114 13.158 2.699 10.917 L 4.544 10.43 C 4.945 11.707 6.141 12.772 8.032 12.772 C 12.352 12.772 12.386 6.072 7.956 6.072 C 7.002 6.072 6.166 6.23 5.579 6.648 L 8.845 7.726 L 7.86 9.713 L 2.5 6.977 L 5.043 1 L 7.063 1.977 L 5.534 4.522 C 6.226 4.148 7.038 3.906 7.976 3.906 C 15.343 3.906 15.298 15 8.102 15 Z M 8.102 15" transform="matrix(0.9999999999999999, 0, 0, 0.9999999999999999, 0, 0)"/>
</svg>